<svg width="16" height="16" viewBox="0 0 16 16" fill="none" xmlns="http://www.w3.org/2000/svg">
<rect width="16" height="16" rx="2" fill="#FFF2DC"/>
<path d="M2 2H4.925C6.62328 2 8 3.37672 8 5.075V5.075C8 6.77327 6.62328 8.15 4.925 8.15H2V2Z" fill="#322020"/>
<path d="M2 14C2 10.6863 4.68629 8 8 8V8V14.15H2V14Z" fill="#322020"/>
<path d="M8 11.075C8 9.37672 9.37672 8 11.075 8H14V14.15H11.075C9.37672 14.15 8 12.7733 8 11.075V11.075Z" fill="#322020"/>
<path d="M8 2H14V2.15C14 5.46371 11.3137 8.15 8 8.15V8.15V2Z" fill="#322020"/>
</svg>
